name rise35.5848peak51.9257fall54.8793.mot
datacolumns 19
datarows 18
range 6.62330500000000 6.65163900000000
endheader
time	ground_force1_vx	ground_force1_vy	ground_force1_vz	ground_force1_px	ground_force1_py	ground_force1_pz	ground_force2_vx	ground_force2_vy	ground_force2_vz	ground_force2_px	ground_force2_py	ground_force2_pz	ground_torque1_x	ground_torque1_y	ground_torque1_z	ground_torque2_x	ground_torque2_y	ground_torque2_z	
6.62330500000000	17.15977400000000	701.05020300000001	28.24715600000000	0.19915800000000	0.00000000000000	0.06983500000000	0.00000000000000	0.00000000000000	0.00000000000000	0.00000000000000	0.00000000000000	0.00000000000000	0.00000000000000	9.75775400000000	0.00000000000000	0.00000000000000	0.00000000000000	0.00000000000000	
6.62497000000000	16.84536600000000	701.37544000000003	28.21452800000000	0.19835400000000	0.00000000000000	0.06978100000000	0.00000000000000	0.00000000000000	0.00000000000000	0.00000000000000	0.00000000000000	0.00000000000000	0.00000000000000	9.76926000000000	0.00000000000000	0.00000000000000	0.00000000000000	0.00000000000000	
6.62663700000000	16.52486500000000	701.74506099999996	28.18779600000000	0.19754400000000	0.00000000000000	0.06972800000000	0.00000000000000	0.00000000000000	0.00000000000000	0.00000000000000	0.00000000000000	0.00000000000000	0.00000000000000	9.78460600000000	0.00000000000000	0.00000000000000	0.00000000000000	0.00000000000000	
6.62830200000000	16.19784800000000	702.15787599999999	28.16677400000000	0.19672700000000	0.00000000000000	0.06967600000000	0.00000000000000	0.00000000000000	0.00000000000000	0.00000000000000	0.00000000000000	0.00000000000000	0.00000000000000	9.80372900000000	0.00000000000000	0.00000000000000	0.00000000000000	0.00000000000000	
6.62996800000000	15.86390300000000	702.61271599999998	28.15127300000000	0.19590300000000	0.00000000000000	0.06962600000000	0.00000000000000	0.00000000000000	0.00000000000000	0.00000000000000	0.00000000000000	0.00000000000000	0.00000000000000	9.82656100000000	0.00000000000000	0.00000000000000	0.00000000000000	0.00000000000000	
6.63164100000000	15.52263200000000	703.10844199999997	28.14110600000000	0.19507100000000	0.00000000000000	0.06957800000000	0.00000000000000	0.00000000000000	0.00000000000000	0.00000000000000	0.00000000000000	0.00000000000000	0.00000000000000	9.85303000000000	0.00000000000000	0.00000000000000	0.00000000000000	0.00000000000000	
6.63330200000000	15.17364800000000	703.64394100000004	28.13608500000000	0.19423200000000	0.00000000000000	0.06953100000000	0.00000000000000	0.00000000000000	0.00000000000000	0.00000000000000	0.00000000000000	0.00000000000000	0.00000000000000	9.88306200000000	0.00000000000000	0.00000000000000	0.00000000000000	0.00000000000000	
6.63497100000000	14.81658300000000	704.21813799999995	28.13602800000000	0.19338400000000	0.00000000000000	0.06948600000000	0.00000000000000	0.00000000000000	0.00000000000000	0.00000000000000	0.00000000000000	0.00000000000000	0.00000000000000	9.91658200000000	0.00000000000000	0.00000000000000	0.00000000000000	0.00000000000000	
6.63663300000000	14.45108700000000	704.82999199999995	28.14075300000000	0.19252800000000	0.00000000000000	0.06944200000000	0.00000000000000	0.00000000000000	0.00000000000000	0.00000000000000	0.00000000000000	0.00000000000000	0.00000000000000	9.95351100000000	0.00000000000000	0.00000000000000	0.00000000000000	0.00000000000000	
6.63830700000000	14.07682900000000	705.47850100000005	28.15008400000000	0.19166300000000	0.00000000000000	0.06940000000000	0.00000000000000	0.00000000000000	0.00000000000000	0.00000000000000	0.00000000000000	0.00000000000000	0.00000000000000	9.99376700000000	0.00000000000000	0.00000000000000	0.00000000000000	0.00000000000000	
6.63997300000000	13.69349900000000	706.16270499999996	28.16384900000000	0.19079000000000	0.00000000000000	0.06935900000000	0.00000000000000	0.00000000000000	0.00000000000000	0.00000000000000	0.00000000000000	0.00000000000000	0.00000000000000	10.03726600000000	0.00000000000000	0.00000000000000	0.00000000000000	0.00000000000000	
6.64163700000000	13.30081000000000	706.88168299999995	28.18188400000000	0.18990800000000	0.00000000000000	0.06931900000000	0.00000000000000	0.00000000000000	0.00000000000000	0.00000000000000	0.00000000000000	0.00000000000000	0.00000000000000	10.08392400000000	0.00000000000000	0.00000000000000	0.00000000000000	0.00000000000000	
6.64330100000000	12.89850200000000	707.63456099999996	28.20403100000000	0.18901600000000	0.00000000000000	0.06928100000000	0.00000000000000	0.00000000000000	0.00000000000000	0.00000000000000	0.00000000000000	0.00000000000000	0.00000000000000	10.13365100000000	0.00000000000000	0.00000000000000	0.00000000000000	0.00000000000000	
6.64497200000000	12.48633700000000	708.42050300000005	28.23013900000000	0.18811600000000	0.00000000000000	0.06924400000000	0.00000000000000	0.00000000000000	0.00000000000000	0.00000000000000	0.00000000000000	0.00000000000000	0.00000000000000	10.18635700000000	0.00000000000000	0.00000000000000	0.00000000000000	0.00000000000000	
6.64663600000000	12.06410700000000	709.23871999999994	28.26006700000000	0.18720700000000	0.00000000000000	0.06920800000000	0.00000000000000	0.00000000000000	0.00000000000000	0.00000000000000	0.00000000000000	0.00000000000000	0.00000000000000	10.24195100000000	0.00000000000000	0.00000000000000	0.00000000000000	0.00000000000000	
6.64830100000000	11.63163100000000	710.08846400000004	28.29368100000000	0.18628900000000	0.00000000000000	0.06917400000000	0.00000000000000	0.00000000000000	0.00000000000000	0.00000000000000	0.00000000000000	0.00000000000000	0.00000000000000	10.30033600000000	0.00000000000000	0.00000000000000	0.00000000000000	0.00000000000000	
6.64997200000000	11.18875800000000	710.96902899999998	28.33086100000000	0.18536200000000	0.00000000000000	0.06914000000000	0.00000000000000	0.00000000000000	0.00000000000000	0.00000000000000	0.00000000000000	0.00000000000000	0.00000000000000	10.36141800000000	0.00000000000000	0.00000000000000	0.00000000000000	0.00000000000000	
6.65163900000000	10.73536900000000	711.87974799999995	28.37149200000000	0.18442500000000	0.00000000000000	0.06910800000000	0.00000000000000	0.00000000000000	0.00000000000000	0.00000000000000	0.00000000000000	0.00000000000000	0.00000000000000	10.42509700000000	0.00000000000000	0.00000000000000	0.00000000000000	0.00000000000000	
